<mxfile host="app.diagrams.net" modified="2023-04-17T10:03:05.711Z" agent="Mozilla/5.0 (Windows NT 10.0; Win64; x64; rv:109.0) Gecko/20100101 Firefox/112.0" etag="Fi1OX-aKehnRijILgqin" version="21.1.8" type="github">
  <diagram name="Page-1" id="V4mjZPqqtFgARzp48_e_">
    <mxGraphModel dx="1434" dy="754" grid="1" gridSize="10" guides="1" tooltips="1" connect="1" arrows="1" fold="1" page="1" pageScale="1" pageWidth="1169" pageHeight="827" math="0" shadow="0">
      <root>
        <mxCell id="0" />
        <mxCell id="1" parent="0" />
        <mxCell id="CY5Ewv7g4s774bnmnqhE-1" value="" style="rounded=0;whiteSpace=wrap;html=1;fillColor=#f5f5f5;fontColor=#333333;strokeColor=#666666;" vertex="1" parent="1">
          <mxGeometry x="10" width="1150" height="90" as="geometry" />
        </mxCell>
        <mxCell id="CY5Ewv7g4s774bnmnqhE-2" value="Filtrer affichages" style="shape=partialRectangle;whiteSpace=wrap;html=1;bottom=0;top=0;fillColor=none;" vertex="1" parent="1">
          <mxGeometry x="250" y="20" width="130" height="50" as="geometry" />
        </mxCell>
        <mxCell id="CY5Ewv7g4s774bnmnqhE-3" value="Formulaires" style="shape=partialRectangle;whiteSpace=wrap;html=1;bottom=0;top=0;fillColor=none;" vertex="1" parent="1">
          <mxGeometry x="380" y="20" width="130" height="50" as="geometry" />
        </mxCell>
        <mxCell id="CY5Ewv7g4s774bnmnqhE-4" value="Modifications" style="shape=partialRectangle;whiteSpace=wrap;html=1;bottom=0;top=0;fillColor=none;" vertex="1" parent="1">
          <mxGeometry x="510" y="20" width="130" height="50" as="geometry" />
        </mxCell>
        <mxCell id="CY5Ewv7g4s774bnmnqhE-5" value="&lt;p style=&quot;line-height: 120%;&quot;&gt;Accueil&lt;/p&gt;" style="shape=partialRectangle;whiteSpace=wrap;html=1;bottom=0;top=0;fillColor=none;" vertex="1" parent="1">
          <mxGeometry x="115" y="20" width="135" height="50" as="geometry" />
        </mxCell>
        <mxCell id="CY5Ewv7g4s774bnmnqhE-6" value="" style="triangle;whiteSpace=wrap;html=1;rotation=90;" vertex="1" parent="1">
          <mxGeometry x="360" y="50" width="10" height="20" as="geometry" />
        </mxCell>
        <mxCell id="CY5Ewv7g4s774bnmnqhE-7" value="" style="triangle;whiteSpace=wrap;html=1;rotation=90;" vertex="1" parent="1">
          <mxGeometry x="490" y="50" width="10" height="20" as="geometry" />
        </mxCell>
        <mxCell id="CY5Ewv7g4s774bnmnqhE-8" value="FOOTER" style="rounded=0;whiteSpace=wrap;html=1;resizeWidth=0;" vertex="1" parent="1">
          <mxGeometry x="10" y="767" width="1150" height="60" as="geometry" />
        </mxCell>
        <mxCell id="CY5Ewv7g4s774bnmnqhE-14" value="Par genres" style="rounded=0;whiteSpace=wrap;html=1;fillColor=#f5f5f5;fontColor=#333333;strokeColor=#666666;" vertex="1" parent="1">
          <mxGeometry x="250" y="90" width="130" height="60" as="geometry" />
        </mxCell>
        <mxCell id="CY5Ewv7g4s774bnmnqhE-15" value="Par réalisateurs" style="rounded=0;whiteSpace=wrap;html=1;fillColor=#f5f5f5;fontColor=#333333;strokeColor=#666666;" vertex="1" parent="1">
          <mxGeometry x="250" y="150" width="130" height="60" as="geometry" />
        </mxCell>
        <mxCell id="CY5Ewv7g4s774bnmnqhE-16" value="Par acteurs" style="rounded=0;whiteSpace=wrap;html=1;fillColor=#f5f5f5;fontColor=#333333;strokeColor=#666666;" vertex="1" parent="1">
          <mxGeometry x="250" y="210" width="130" height="60" as="geometry" />
        </mxCell>
        <mxCell id="CY5Ewv7g4s774bnmnqhE-18" value="Par rôles" style="rounded=0;whiteSpace=wrap;html=1;fillColor=#f5f5f5;fontColor=#333333;strokeColor=#666666;" vertex="1" parent="1">
          <mxGeometry x="250" y="270" width="130" height="60" as="geometry" />
        </mxCell>
        <mxCell id="CY5Ewv7g4s774bnmnqhE-19" value="&lt;div&gt;Nouveau&lt;/div&gt;&lt;div&gt;film&lt;/div&gt;" style="rounded=0;whiteSpace=wrap;html=1;fillColor=#f5f5f5;fontColor=#333333;strokeColor=#666666;" vertex="1" parent="1">
          <mxGeometry x="380" y="150" width="130" height="60" as="geometry" />
        </mxCell>
        <mxCell id="CY5Ewv7g4s774bnmnqhE-20" value="&amp;nbsp;Nouveau réalisateur/acteur" style="rounded=0;whiteSpace=wrap;html=1;fillColor=#f5f5f5;fontColor=#333333;strokeColor=#666666;" vertex="1" parent="1">
          <mxGeometry x="380" y="90" width="130" height="60" as="geometry" />
        </mxCell>
        <mxCell id="CY5Ewv7g4s774bnmnqhE-21" value="&lt;div&gt;Nouveau &lt;br&gt;&lt;/div&gt;&lt;div&gt;casting&lt;/div&gt;" style="rounded=0;whiteSpace=wrap;html=1;fillColor=#f5f5f5;fontColor=#333333;strokeColor=#666666;" vertex="1" parent="1">
          <mxGeometry x="380" y="270" width="130" height="60" as="geometry" />
        </mxCell>
        <mxCell id="CY5Ewv7g4s774bnmnqhE-22" value="&lt;div&gt;Nouveau&lt;/div&gt;&lt;div&gt;rôle&lt;br&gt;&lt;/div&gt;" style="rounded=0;whiteSpace=wrap;html=1;fillColor=#f5f5f5;fontColor=#333333;strokeColor=#666666;" vertex="1" parent="1">
          <mxGeometry x="380" y="210" width="130" height="60" as="geometry" />
        </mxCell>
      </root>
    </mxGraphModel>
  </diagram>
</mxfile>
